<svg id="Layer_3" enable-background="new 0 0 64 64" height="512" viewBox="0 0 64 64" width="512" xmlns="http://www.w3.org/2000/svg"><g><path d="m5 15h54v34h-54z" fill="#969696"/><path d="m10 38c0 3.866 3.134 7 7 7h42v-30h-49z" fill="#b5b5b5"/><path d="m12 19h4v22h-4z" fill="#969696"/><path d="m13 19h3v21h-3z" fill="#fff"/><path d="m21 19h4v22h-4z" fill="#969696"/><path d="m22 19h3v21h-3z" fill="#fff"/><path d="m30 19h4v22h-4z" fill="#969696"/><path d="m31 19h3v21h-3z" fill="#fff"/><path d="m39 19h4v22h-4z" fill="#969696"/><path d="m40 19h3v21h-3z" fill="#fff"/><path d="m48 19h4v22h-4z" fill="#969696"/><path d="m49 19h3v21h-3z" fill="#fff"/><g><path d="m21 25h4v2h-4z" fill="#969696"/></g><g><path d="m30 25h4v2h-4z" fill="#969696"/></g><g><path d="m12 25h4v2h-4z" fill="#969696"/></g><path d="m43 8v-4l-11-2-11 2v4" fill="#969696"/><path d="m62 15v-4l-19-3h-22l-19 3v4z" fill="#662a12"/><path d="m21 8-11.896 1.878c.401 1.786 1.99 3.122 3.896 3.122h49v-2l-19-3z" fill="#893b20"/><path d="m2 49h60v13h-60z" fill="#662a12"/><path d="m5 52c0 3.866 3.134 7 7 7h50v-10h-57z" fill="#893b20"/><path d="m62 62-30-8-30 8" fill="#e7b541"/><g><path d="m39 25h4v2h-4z" fill="#969696"/></g><g><path d="m48 25h4v2h-4z" fill="#969696"/></g><path d="m32 54-18.75 5h37.5z" fill="#f9cb6e"/><path d="m33.5 2.273-9.5 1.727v4h19v-4z" fill="#b5b5b5"/></g></svg>