<?xml version="1.0" standalone="no"?>
<!DOCTYPE svg PUBLIC "-//W3C//DTD SVG 20010904//EN"
 "http://www.w3.org/TR/2001/REC-SVG-20010904/DTD/svg10.dtd">
<svg version="1.0" xmlns="http://www.w3.org/2000/svg"
 width="52.000000pt" height="52.000000pt" viewBox="0 0 52.000000 52.000000"
 preserveAspectRatio="xMidYMid meet">

<g transform="translate(0.000000,52.000000) scale(0.100000,-0.100000)"
fill="#a86c13" stroke="none">
<path d="M198 504 c-34 -18 -58 -62 -58 -106 0 -35 31 -111 49 -122 6 -4 11
-18 11 -31 0 -19 -11 -29 -55 -49 -98 -44 -133 -107 -85 -151 63 -57 337 -57
400 0 48 44 13 107 -85 151 -44 20 -55 30 -55 49 0 13 5 27 11 31 18 11 49 87
49 122 0 94 -98 152 -182 106z"/>
</g>
</svg>
