<?xml version="1.0" standalone="no"?>
<!DOCTYPE svg PUBLIC "-//W3C//DTD SVG 20010904//EN"
 "http://www.w3.org/TR/2001/REC-SVG-20010904/DTD/svg10.dtd">
<svg version="1.0" xmlns="http://www.w3.org/2000/svg"
 width="50.000000pt" height="50.000000pt" viewBox="0 0 50.000000 50.000000"
 preserveAspectRatio="xMidYMid meet">

<g transform="translate(0.000000,50.000000) scale(0.100000,-0.100000)"
fill="#0f5494" stroke="none">
<path d="M145 485 c-22 -8 -54 -30 -72 -49 -63 -68 -68 -170 -14 -272 24 -43
31 -70 31 -110 l0 -54 120 0 120 0 0 25 c0 18 5 25 20 25 52 0 90 41 90 98 0
17 10 34 28 48 l27 23 -27 48 c-14 26 -31 67 -37 90 -19 70 -71 119 -143 137
l-28 6 0 -84 c0 -78 2 -87 26 -111 23 -23 26 -32 21 -69 -5 -38 -3 -44 16 -54
12 -6 31 -12 42 -14 14 -2 20 -11 20 -28 0 -20 -5 -25 -25 -25 -17 0 -26 6
-29 20 -6 33 -32 45 -83 38 -41 -5 -50 -2 -72 20 -34 34 -34 79 -1 113 23 23
25 33 25 109 0 47 -3 85 -7 85 -5 -1 -26 -7 -48 -15z"/>
<path d="M190 290 c-11 -11 -20 -29 -20 -40 0 -26 34 -60 60 -60 26 0 60 34
60 60 0 11 -9 29 -20 40 -11 11 -29 20 -40 20 -11 0 -29 -9 -40 -20z m70 -15
c15 -18 10 -45 -12 -59 -35 -22 -74 27 -48 59 16 19 44 19 60 0z"/>
<path d="M214 259 c-10 -17 13 -36 27 -22 12 12 4 33 -11 33 -5 0 -12 -5 -16
-11z"/>
</g>
</svg>
